STARTFONT 2.1
COMMENT
COMMENT Converted from OpenType font "Q:\font stuff\winfont\Leger-Regular.otf" by "otf2bdf 3.0".
COMMENT
FONT -FreeType-Leger-Medium-R-Normal--33-330-72-72-P-106-ISO10646-1
SIZE 33 72 72
FONTBOUNDINGBOX 27 39 -1 -7
STARTPROPERTIES 19
FOUNDRY "FreeType"
FAMILY_NAME "Leger"
WEIGHT_NAME "Medium"
SLANT "R"
SETWIDTH_NAME "Normal"
ADD_STYLE_NAME ""
PIXEL_SIZE 26
POINT_SIZE 330
RESOLUTION_X 72
RESOLUTION_Y 72
SPACING "P"
AVERAGE_WIDTH 106
CHARSET_REGISTRY "ISO10646"
CHARSET_ENCODING "1"
FONT_ASCENT 30
FONT_DESCENT 6
COPYRIGHT "© 2000 [T-26] a digital type foundry 1110 N. Milwaukee Ave. Chicago, IL 60622 USA ¥ T0690 ¥ÊID#5116747 ¥ Designer: Bill Dawson ¥ÊAll rights reserved."
_OTF_FONTFILE "Q:\font stuff\winfont\Leger-Regular.otf"
_OTF_PSNAME "Leger-Regular"
ENDPROPERTIES
CHARS 198
STARTCHAR 0020
ENCODING 32
SWIDTH 151 0
DWIDTH 5 0
BBX 0 0 0 0
BITMAP
ENDCHAR
STARTCHAR 0021
ENCODING 33
SWIDTH 272 0
DWIDTH 9 0
BBX 3 24 3 0
BITMAP
E0
E0
E0
E0
E0
E0
E0
E0
E0
E0
E0
E0
E0
E0
E0
E0
E0
E0
E0
00
00
40
E0
E0
ENDCHAR
STARTCHAR 0022
ENCODING 34
SWIDTH 333 0
DWIDTH 11 0
BBX 5 7 3 17
BITMAP
D8
D8
D8
D8
D8
D8
D8
ENDCHAR
STARTCHAR 0023
ENCODING 35
SWIDTH 545 0
DWIDTH 18 0
BBX 16 19 1 2
BITMAP
018C
0198
0318
0318
0318
0630
7FFF
7FFF
0E60
0C60
0C60
FFFC
FFFC
18C0
18C0
3980
3180
3180
3300
ENDCHAR
STARTCHAR 0024
ENCODING 36
SWIDTH 393 0
DWIDTH 13 0
BBX 11 26 1 -1
BITMAP
0C00
0C00
0C00
1F00
3F80
71C0
E0E0
C040
C000
C000
E000
7000
3E00
0F80
03C0
00C0
0060
0060
0060
0060
E0C0
71C0
7F80
1E00
0C00
0C00
ENDCHAR
STARTCHAR 0025
ENCODING 37
SWIDTH 545 0
DWIDTH 18 0
BBX 16 20 1 -1
BITMAP
3804
7C0C
C60C
C618
C630
C630
C660
7C60
38C0
0180
0180
031C
033E
0663
0C63
0C63
1863
3863
303E
601C
ENDCHAR
STARTCHAR 0026
ENCODING 38
SWIDTH 484 0
DWIDTH 16 0
BBX 16 24 1 0
BITMAP
1F00
3F80
61C0
C0C0
C060
C000
C000
E000
6000
3000
3800
7C00
EC00
CE00
C700
C300
C184
C1CC
C0F8
C070
C0F0
61F8
7F9F
1F0F
ENDCHAR
STARTCHAR 0027
ENCODING 39
SWIDTH 272 0
DWIDTH 9 0
BBX 2 7 3 17
BITMAP
C0
C0
C0
C0
C0
C0
C0
ENDCHAR
STARTCHAR 0028
ENCODING 40
SWIDTH 363 0
DWIDTH 12 0
BBX 10 33 1 -4
BITMAP
01C0
07C0
1E00
3800
3000
6000
6000
C000
C000
C000
C000
C000
C000
C000
C000
C000
C000
C000
C000
C000
C000
C000
C000
C000
C000
C000
6000
6000
3000
3800
1E00
0FC0
01C0
ENDCHAR
STARTCHAR 0029
ENCODING 41
SWIDTH 393 0
DWIDTH 13 0
BBX 10 33 1 -4
BITMAP
E000
FC00
1E00
0700
0380
0180
0180
00C0
00C0
00C0
00C0
00C0
00C0
00C0
00C0
00C0
00C0
00C0
00C0
00C0
00C0
00C0
00C0
00C0
00C0
00C0
0180
0180
0300
0700
1E00
F800
E000
ENDCHAR
STARTCHAR 002A
ENCODING 42
SWIDTH 393 0
DWIDTH 13 0
BBX 10 9 1 16
BITMAP
3200
3300
1E00
FFC0
FFC0
1E00
3F00
3300
1200
ENDCHAR
STARTCHAR 002B
ENCODING 43
SWIDTH 393 0
DWIDTH 13 0
BBX 12 12 0 5
BITMAP
0600
0600
0600
0600
0600
FFF0
FFF0
0600
0600
0600
0600
0600
ENDCHAR
STARTCHAR 002C
ENCODING 44
SWIDTH 303 0
DWIDTH 10 0
BBX 4 7 3 -2
BITMAP
30
30
30
60
60
C0
80
ENDCHAR
STARTCHAR 002D
ENCODING 45
SWIDTH 333 0
DWIDTH 11 0
BBX 6 2 2 7
BITMAP
FC
FC
ENDCHAR
STARTCHAR 002E
ENCODING 46
SWIDTH 272 0
DWIDTH 9 0
BBX 3 3 3 0
BITMAP
40
E0
E0
ENDCHAR
STARTCHAR 002F
ENCODING 47
SWIDTH 393 0
DWIDTH 13 0
BBX 11 28 1 -3
BITMAP
0040
0060
00C0
00C0
00C0
0180
0180
0180
0300
0300
0300
0600
0600
0600
0C00
0C00
1C00
1800
1800
3000
3000
3000
6000
6000
6000
C000
C000
C000
ENDCHAR
STARTCHAR 0030
ENCODING 48
SWIDTH 424 0
DWIDTH 14 0
BBX 11 24 2 0
BITMAP
1F00
3F80
71C0
E0E0
C060
C060
C060
C060
C060
C060
C060
C060
C060
C060
C060
C060
C060
C060
C060
C060
E0E0
71C0
3F80
1F00
ENDCHAR
STARTCHAR 0031
ENCODING 49
SWIDTH 242 0
DWIDTH 8 0
BBX 4 24 2 0
BITMAP
F0
F0
30
30
30
30
30
30
30
30
30
30
30
30
30
30
30
30
30
30
30
30
30
30
ENDCHAR
STARTCHAR 0032
ENCODING 50
SWIDTH 424 0
DWIDTH 14 0
BBX 11 24 2 0
BITMAP
1F00
3F80
71C0
60E0
C060
0060
0060
0060
0060
00C0
00C0
0180
0700
0E00
1C00
1800
3000
6000
6000
C000
C000
C000
FFE0
FFE0
ENDCHAR
STARTCHAR 0033
ENCODING 51
SWIDTH 424 0
DWIDTH 14 0
BBX 11 24 2 0
BITMAP
1F00
3F80
71C0
60E0
0060
0060
0060
0060
0060
00E0
01C0
0F80
0FC0
01C0
0060
0060
0060
0060
0060
C060
6060
70C0
3F80
1F00
ENDCHAR
STARTCHAR 0034
ENCODING 52
SWIDTH 424 0
DWIDTH 14 0
BBX 13 24 1 0
BITMAP
0060
00E0
00E0
01E0
01E0
0360
0360
0660
0660
0E60
0C60
1C60
1860
3860
3060
7060
6060
7FF8
FFF8
0060
0060
0060
0060
0060
ENDCHAR
STARTCHAR 0035
ENCODING 53
SWIDTH 424 0
DWIDTH 14 0
BBX 11 24 2 0
BITMAP
FFE0
FFE0
C000
C000
C000
C000
C000
C000
C000
DF00
FF80
F1C0
E0E0
0060
0060
0060
0060
0060
0060
C060
E0E0
71C0
3F80
1F00
ENDCHAR
STARTCHAR 0036
ENCODING 54
SWIDTH 424 0
DWIDTH 14 0
BBX 10 24 2 0
BITMAP
1F00
3F80
61C0
C000
C000
C000
C000
C000
DE00
FF00
E180
C1C0
C0C0
C0C0
C0C0
C0C0
C0C0
C0C0
C0C0
C0C0
E0C0
7180
3F00
1E00
ENDCHAR
STARTCHAR 0037
ENCODING 55
SWIDTH 393 0
DWIDTH 13 0
BBX 12 24 0 0
BITMAP
FFF0
FFF0
0070
0060
0060
0060
00C0
00C0
00C0
0180
0180
0180
0300
0300
0300
0700
0600
0600
0600
0C00
0C00
0C00
1800
1800
ENDCHAR
STARTCHAR 0038
ENCODING 56
SWIDTH 424 0
DWIDTH 14 0
BBX 11 24 1 0
BITMAP
1F00
3F80
71C0
E0E0
C060
C060
C060
C060
C060
E0E0
71C0
7F80
3F80
71C0
E0E0
C060
C060
C060
C060
C060
E0E0
71C0
3F80
1F00
ENDCHAR
STARTCHAR 0039
ENCODING 57
SWIDTH 424 0
DWIDTH 14 0
BBX 10 24 2 0
BITMAP
1E00
3F80
6180
C0C0
C0C0
C0C0
C0C0
C0C0
C0C0
C0C0
C0C0
C0C0
C0C0
C0C0
61C0
7FC0
1EC0
00C0
00C0
00C0
00C0
E180
7F00
3E00
ENDCHAR
STARTCHAR 003A
ENCODING 58
SWIDTH 272 0
DWIDTH 9 0
BBX 3 8 3 3
BITMAP
40
E0
C0
00
00
40
E0
C0
ENDCHAR
STARTCHAR 003B
ENCODING 59
SWIDTH 303 0
DWIDTH 10 0
BBX 4 12 2 -2
BITMAP
30
30
30
00
00
00
30
30
30
60
60
C0
ENDCHAR
STARTCHAR 003C
ENCODING 60
SWIDTH 424 0
DWIDTH 14 0
BBX 13 12 1 5
BITMAP
0018
0078
01F0
07C0
1E00
7800
F800
3E00
0F80
03E0
00F8
0038
ENDCHAR
STARTCHAR 003D
ENCODING 61
SWIDTH 393 0
DWIDTH 13 0
BBX 11 6 1 7
BITMAP
FFE0
FFE0
0000
0000
FFE0
FFE0
ENDCHAR
STARTCHAR 003E
ENCODING 62
SWIDTH 424 0
DWIDTH 14 0
BBX 13 12 0 5
BITMAP
C000
F000
7C00
1F00
07C0
01F0
00F8
03E0
0F80
3C00
F000
C000
ENDCHAR
STARTCHAR 003F
ENCODING 63
SWIDTH 393 0
DWIDTH 13 0
BBX 11 24 1 0
BITMAP
1F00
3F80
71C0
E0E0
C060
C060
0060
0060
0060
0060
00C0
03C0
0700
0600
0C00
0C00
0C00
0C00
0C00
0000
0000
0000
0C00
0C00
ENDCHAR
STARTCHAR 0040
ENCODING 64
SWIDTH 575 0
DWIDTH 19 0
BBX 17 18 1 0
BITMAP
03E000
0FF800
3C1E00
300600
61E300
67F300
CE3980
CC1980
CC1980
CC1980
CC1980
CE3980
67FF80
63E700
300000
1C0000
0FF000
03F000
ENDCHAR
STARTCHAR 0041
ENCODING 65
SWIDTH 393 0
DWIDTH 13 0
BBX 11 24 1 0
BITMAP
1F00
3F80
71C0
E0E0
C060
C060
C060
C060
C060
C060
C060
C060
C060
C060
FFE0
FFE0
C060
C060
C060
C060
C060
C060
C060
C060
ENDCHAR
STARTCHAR 0042
ENCODING 66
SWIDTH 393 0
DWIDTH 13 0
BBX 11 24 1 0
BITMAP
1F00
7F80
61C0
C0E0
C060
C060
C060
C060
C060
C1C0
FF80
FF80
C1C0
C0E0
C060
C060
C060
C060
C060
C060
C0E0
C1C0
FF80
FF00
ENDCHAR
STARTCHAR 0043
ENCODING 67
SWIDTH 393 0
DWIDTH 13 0
BBX 10 24 1 0
BITMAP
1F00
3F80
61C0
E0C0
C000
C000
C000
C000
C000
C000
C000
C000
C000
C000
C000
C000
C000
C000
C000
C000
E0C0
71C0
3F80
1F00
ENDCHAR
STARTCHAR 0044
ENCODING 68
SWIDTH 393 0
DWIDTH 13 0
BBX 11 24 1 0
BITMAP
FF00
FF80
C1C0
C0E0
C060
C060
C060
C060
C060
C060
C060
C060
C060
C060
C060
C060
C060
C060
C060
C060
C0E0
C1C0
FF80
FF00
ENDCHAR
STARTCHAR 0045
ENCODING 69
SWIDTH 363 0
DWIDTH 12 0
BBX 10 24 1 0
BITMAP
FFC0
FFC0
C000
C000
C000
C000
C000
C000
C000
C000
C000
FF00
FF00
C000
C000
C000
C000
C000
C000
C000
C000
6000
7FC0
1FC0
ENDCHAR
STARTCHAR 0046
ENCODING 70
SWIDTH 333 0
DWIDTH 11 0
BBX 10 24 1 0
BITMAP
1FC0
7FC0
6000
C000
C000
C000
C000
C000
C000
C000
C000
FF00
FF00
C000
C000
C000
C000
C000
C000
C000
C000
C000
C000
C000
ENDCHAR
STARTCHAR 0047
ENCODING 71
SWIDTH 393 0
DWIDTH 13 0
BBX 11 24 1 0
BITMAP
1F00
3FC0
71E0
E0C0
C000
C000
C000
C000
C000
C000
C000
C000
C000
C7E0
C7E0
C060
C060
C060
C060
C060
E0E0
71C0
3F80
1F00
ENDCHAR
STARTCHAR 0048
ENCODING 72
SWIDTH 424 0
DWIDTH 14 0
BBX 11 24 1 0
BITMAP
C060
C060
C060
C060
C060
C060
C060
C060
C060
C060
C060
FFE0
FFE0
C060
C060
C060
C060
C060
C060
C060
C060
C060
C060
C060
ENDCHAR
STARTCHAR 0049
ENCODING 73
SWIDTH 272 0
DWIDTH 9 0
BBX 2 24 3 0
BITMAP
C0
C0
C0
C0
C0
C0
C0
C0
C0
C0
C0
C0
C0
C0
C0
C0
C0
C0
C0
C0
C0
C0
C0
C0
ENDCHAR
STARTCHAR 004A
ENCODING 74
SWIDTH 363 0
DWIDTH 12 0
BBX 10 24 -1 0
BITMAP
0FC0
0FC0
00C0
00C0
00C0
00C0
00C0
00C0
00C0
00C0
00C0
00C0
00C0
00C0
00C0
00C0
00C0
00C0
00C0
00C0
40C0
E1C0
7F80
1E00
ENDCHAR
STARTCHAR 004B
ENCODING 75
SWIDTH 454 0
DWIDTH 15 0
BBX 13 24 1 0
BITMAP
C018
C030
C070
C0E0
C0C0
C180
C380
C700
C600
CC00
DC00
F800
D800
DC00
CE00
C600
C300
C380
C1C0
C0C0
C060
C070
C038
C018
ENDCHAR
STARTCHAR 004C
ENCODING 76
SWIDTH 333 0
DWIDTH 11 0
BBX 9 24 1 0
BITMAP
C000
C000
C000
C000
C000
C000
C000
C000
C000
C000
C000
C000
C000
C000
C000
C000
C000
C000
C000
C000
C000
C000
FF80
FF80
ENDCHAR
STARTCHAR 004D
ENCODING 77
SWIDTH 515 0
DWIDTH 17 0
BBX 14 24 1 0
BITMAP
C00C
E01C
E01C
E01C
F03C
F03C
F03C
D86C
D86C
D86C
CCCC
CCCC
CCCC
C78C
C78C
C78C
C30C
C30C
C30C
C00C
C00C
C00C
C00C
C00C
ENDCHAR
STARTCHAR 004E
ENCODING 78
SWIDTH 393 0
DWIDTH 13 0
BBX 11 24 1 0
BITMAP
C060
E060
E060
E060
F060
F060
F860
D860
D860
DC60
CC60
CC60
C660
C660
C760
C360
C360
C3E0
C1E0
C1E0
C0E0
C0E0
C0E0
C060
ENDCHAR
STARTCHAR 004F
ENCODING 79
SWIDTH 393 0
DWIDTH 13 0
BBX 11 24 1 0
BITMAP
1F00
3F80
71C0
E0E0
C060
C060
C060
C060
C060
C060
C060
C060
C060
C060
C060
C060
C060
C060
C060
C060
E0E0
71C0
3F80
1F00
ENDCHAR
STARTCHAR 0050
ENCODING 80
SWIDTH 393 0
DWIDTH 13 0
BBX 11 24 1 0
BITMAP
FF00
FF80
C1C0
C0E0
C060
C060
C060
C060
C060
C060
C060
C060
C060
C060
E0E0
F1C0
FF80
DF00
C000
C000
C000
C000
C000
C000
ENDCHAR
STARTCHAR 0051
ENCODING 81
SWIDTH 424 0
DWIDTH 14 0
BBX 13 24 1 0
BITMAP
1F00
3F80
71C0
E0E0
C060
C060
C060
C060
C060
C060
C060
C060
C060
C060
C060
C060
C460
CC60
C660
C760
E3E0
71E0
3FF0
1FF8
ENDCHAR
STARTCHAR 0052
ENCODING 82
SWIDTH 363 0
DWIDTH 12 0
BBX 12 24 0 0
BITMAP
FF00
FF80
C1C0
C0E0
C060
C060
C060
C060
C060
C060
C060
C060
C060
C0E0
C1C0
FF80
FF00
C700
C300
C180
C1C0
C0C0
C060
C070
ENDCHAR
STARTCHAR 0053
ENCODING 83
SWIDTH 393 0
DWIDTH 13 0
BBX 11 24 1 0
BITMAP
1F00
3FC0
71C0
E0E0
C000
C000
C000
C000
C000
E000
7000
3E00
0F80
01C0
00E0
0060
0060
0060
0060
0060
E0E0
71C0
7F80
1F00
ENDCHAR
STARTCHAR 0054
ENCODING 84
SWIDTH 363 0
DWIDTH 12 0
BBX 12 24 0 0
BITMAP
FFF0
FFF0
0600
0600
0600
0600
0600
0600
0600
0600
0600
0600
0600
0600
0600
0600
0600
0600
0600
0600
0600
0600
0600
0600
ENDCHAR
STARTCHAR 0055
ENCODING 85
SWIDTH 393 0
DWIDTH 13 0
BBX 11 24 1 0
BITMAP
C060
C060
C060
C060
C060
C060
C060
C060
C060
C060
C060
C060
C060
C060
C060
C060
C060
C060
C060
C060
E0E0
71C0
3F80
1F00
ENDCHAR
STARTCHAR 0056
ENCODING 86
SWIDTH 393 0
DWIDTH 13 0
BBX 12 24 1 0
BITMAP
C030
C060
C060
C060
C060
6060
60C0
60C0
60C0
70C0
3180
3180
3180
3180
1980
1B00
1B00
1B00
1B00
0F00
0E00
0E00
0E00
0E00
ENDCHAR
STARTCHAR 0057
ENCODING 87
SWIDTH 636 0
DWIDTH 21 0
BBX 20 24 0 0
BITMAP
C06030
606030
606030
606060
607060
60F060
70F060
30F060
30F0C0
30D8C0
30D8C0
3198C0
1998C0
199980
198D80
198D80
1B0D80
0F0D80
0F0F00
0F0F00
0F0700
0E0700
060700
060600
ENDCHAR
STARTCHAR 0058
ENCODING 88
SWIDTH 424 0
DWIDTH 14 0
BBX 13 24 0 0
BITMAP
E018
6038
6030
3070
3060
1860
18C0
0CC0
0D80
0780
0700
0700
0700
0700
0F80
0D80
0CC0
18C0
1860
3060
3030
6030
6038
C018
ENDCHAR
STARTCHAR 0059
ENCODING 89
SWIDTH 424 0
DWIDTH 14 0
BBX 14 24 0 0
BITMAP
E01C
6018
6018
7030
3030
3030
1860
1860
1860
0CC0
0CC0
0CC0
0780
0780
0780
0300
0300
0300
0300
0300
0300
0300
0300
0300
ENDCHAR
STARTCHAR 005A
ENCODING 90
SWIDTH 393 0
DWIDTH 13 0
BBX 11 24 1 0
BITMAP
FFE0
FFC0
00C0
0180
0180
0180
0300
0300
0700
0600
0600
0C00
0C00
0C00
1800
1800
3800
3000
3000
6000
6000
6000
FFE0
FFE0
ENDCHAR
STARTCHAR 005B
ENCODING 91
SWIDTH 333 0
DWIDTH 11 0
BBX 9 33 1 -4
BITMAP
1F80
3F80
6000
C000
C000
C000
C000
C000
C000
C000
C000
C000
C000
C000
C000
C000
C000
C000
C000
C000
C000
C000
C000
C000
C000
C000
C000
C000
C000
E000
6000
7F80
1F80
ENDCHAR
STARTCHAR 005C
ENCODING 92
SWIDTH 393 0
DWIDTH 13 0
BBX 11 29 1 -2
BITMAP
C000
C000
C000
6000
6000
6000
3000
3000
3800
1800
1800
1C00
0C00
0C00
0600
0600
0600
0300
0300
0300
0180
0180
0180
00C0
00C0
00E0
0060
0060
0040
ENDCHAR
STARTCHAR 005D
ENCODING 93
SWIDTH 363 0
DWIDTH 12 0
BBX 8 33 2 -4
BITMAP
F8
FE
06
03
03
03
03
03
03
03
03
03
03
03
03
03
03
03
03
03
03
03
03
03
03
03
03
03
03
03
06
FE
F8
ENDCHAR
STARTCHAR 005E
ENCODING 94
SWIDTH 454 0
DWIDTH 15 0
BBX 15 13 0 12
BITMAP
0380
0780
06C0
0CC0
0CE0
1C60
1870
3830
3038
7018
601C
E00C
C00E
ENDCHAR
STARTCHAR 005F
ENCODING 95
SWIDTH 454 0
DWIDTH 15 0
BBX 17 1 -1 -5
BITMAP
FFFF80
ENDCHAR
STARTCHAR 0060
ENCODING 96
SWIDTH 303 0
DWIDTH 10 0
BBX 6 5 2 19
BITMAP
40
E0
70
38
1C
ENDCHAR
STARTCHAR 0061
ENCODING 97
SWIDTH 363 0
DWIDTH 12 0
BBX 10 18 1 0
BITMAP
1E00
7F80
0180
00C0
00C0
1EC0
3FC0
61C0
C0C0
C0C0
C0C0
C0C0
C0C0
C0C0
C0C0
6180
7F80
1E00
ENDCHAR
STARTCHAR 0062
ENCODING 98
SWIDTH 363 0
DWIDTH 12 0
BBX 10 25 1 0
BITMAP
C000
C000
C000
C000
C000
C000
C000
FE00
FF80
E180
C0C0
C0C0
C0C0
C0C0
C0C0
C0C0
C0C0
C0C0
C0C0
C0C0
C0C0
C0C0
6180
7F80
1E00
ENDCHAR
STARTCHAR 0063
ENCODING 99
SWIDTH 333 0
DWIDTH 11 0
BBX 9 18 1 0
BITMAP
1E00
7F00
6380
C000
C000
C000
C000
C000
C000
C000
C000
C000
C000
C000
C000
6380
7F00
1E00
ENDCHAR
STARTCHAR 0064
ENCODING 100
SWIDTH 363 0
DWIDTH 12 0
BBX 10 25 1 0
BITMAP
00C0
00C0
00C0
00C0
00C0
00C0
00C0
1FC0
7FC0
61C0
C0C0
C0C0
C0C0
C0C0
C0C0
C0C0
C0C0
C0C0
C0C0
C0C0
C0C0
C0C0
6180
7F80
1E00
ENDCHAR
STARTCHAR 0065
ENCODING 101
SWIDTH 363 0
DWIDTH 12 0
BBX 10 18 1 0
BITMAP
1E00
7F80
6180
C0C0
C0C0
C0C0
C0C0
C0C0
C0C0
FFC0
FFC0
C000
C000
C000
C000
6000
7F80
1E00
ENDCHAR
STARTCHAR 0066
ENCODING 102
SWIDTH 242 0
DWIDTH 8 0
BBX 9 25 1 0
BITMAP
1E00
7F00
6380
C000
C000
C000
C000
C000
C000
C000
FE00
FE00
C000
C000
C000
C000
C000
C000
C000
C000
C000
C000
C000
C000
C000
ENDCHAR
STARTCHAR 0067
ENCODING 103
SWIDTH 393 0
DWIDTH 13 0
BBX 10 23 1 -5
BITMAP
1E00
7F80
6180
C0C0
C0C0
C0C0
C0C0
C0C0
C0C0
C0C0
C0C0
C0C0
C0C0
C0C0
C0C0
61C0
7FC0
1EC0
00C0
00C0
0180
3F80
1E00
ENDCHAR
STARTCHAR 0068
ENCODING 104
SWIDTH 363 0
DWIDTH 12 0
BBX 10 25 1 0
BITMAP
C000
C000
C000
C000
C000
C000
C000
FE00
FF80
E180
C0C0
C0C0
C0C0
C0C0
C0C0
C0C0
C0C0
C0C0
C0C0
C0C0
C0C0
C0C0
C0C0
C0C0
C0C0
ENDCHAR
STARTCHAR 0069
ENCODING 105
SWIDTH 181 0
DWIDTH 6 0
BBX 3 23 1 0
BITMAP
60
E0
60
00
00
00
60
60
60
60
60
60
60
60
60
60
60
60
60
60
60
60
60
ENDCHAR
STARTCHAR 006A
ENCODING 106
SWIDTH 212 0
DWIDTH 7 0
BBX 6 28 -1 -5
BITMAP
0C
0C
0C
00
00
00
0C
0C
0C
0C
0C
0C
0C
0C
0C
0C
0C
0C
0C
0C
0C
0C
0C
0C
0C
18
F8
E0
ENDCHAR
STARTCHAR 006B
ENCODING 107
SWIDTH 363 0
DWIDTH 12 0
BBX 9 24 1 1
BITMAP
C000
C000
C000
C000
C000
C000
C000
C180
C300
C700
C600
CC00
DC00
D800
FE00
FF00
C380
C180
C180
C180
C180
C180
C180
C180
ENDCHAR
STARTCHAR 006C
ENCODING 108
SWIDTH 212 0
DWIDTH 7 0
BBX 5 25 2 1
BITMAP
C0
C0
C0
C0
C0
C0
C0
C0
C0
C0
C0
C0
C0
C0
C0
C0
C0
C0
C0
C0
C0
C0
60
78
18
ENDCHAR
STARTCHAR 006D
ENCODING 109
SWIDTH 545 0
DWIDTH 18 0
BBX 15 18 1 0
BITMAP
1E78
7FFC
63CE
C186
C186
C186
C186
C186
C186
C186
C186
C186
C186
C186
C186
C186
C186
C186
ENDCHAR
STARTCHAR 006E
ENCODING 110
SWIDTH 393 0
DWIDTH 13 0
BBX 10 18 1 0
BITMAP
1E00
7F80
6180
C0C0
C0C0
C0C0
C0C0
C0C0
C0C0
C0C0
C0C0
C0C0
C0C0
C0C0
C0C0
C0C0
C0C0
C0C0
ENDCHAR
STARTCHAR 006F
ENCODING 111
SWIDTH 363 0
DWIDTH 12 0
BBX 10 18 1 0
BITMAP
1E00
7F80
6180
C0C0
C0C0
C0C0
C0C0
C0C0
C0C0
C0C0
C0C0
C0C0
C0C0
C0C0
C0C0
6180
7F80
1E00
ENDCHAR
STARTCHAR 0070
ENCODING 112
SWIDTH 363 0
DWIDTH 12 0
BBX 10 23 1 -5
BITMAP
1E00
7F80
6180
C0C0
C0C0
C0C0
C0C0
C0C0
C0C0
C0C0
C0C0
C0C0
C0C0
C0C0
C0C0
E180
FF80
FE00
C000
C000
C000
C000
C000
ENDCHAR
STARTCHAR 0071
ENCODING 113
SWIDTH 393 0
DWIDTH 13 0
BBX 10 23 1 -5
BITMAP
1E00
7F80
6180
C0C0
C0C0
C0C0
C0C0
C0C0
C0C0
C0C0
C0C0
C0C0
C0C0
C0C0
C0C0
61C0
7FC0
1EC0
00C0
00C0
00C0
00C0
00C0
ENDCHAR
STARTCHAR 0072
ENCODING 114
SWIDTH 303 0
DWIDTH 10 0
BBX 9 18 1 0
BITMAP
1E00
7F00
6380
C000
C000
C000
C000
C000
C000
C000
C000
C000
C000
C000
C000
C000
C000
C000
ENDCHAR
STARTCHAR 0073
ENCODING 115
SWIDTH 333 0
DWIDTH 11 0
BBX 10 18 1 0
BITMAP
1F00
3F80
61C0
C000
C000
C000
E000
7000
3C00
0F00
0380
01C0
00C0
00C0
00C0
E180
7F00
3E00
ENDCHAR
STARTCHAR 0074
ENCODING 116
SWIDTH 272 0
DWIDTH 9 0
BBX 7 21 1 1
BITMAP
C0
C0
C0
C0
FE
FE
C0
C0
C0
C0
C0
C0
C0
C0
C0
C0
C0
C0
60
7C
1E
ENDCHAR
STARTCHAR 0075
ENCODING 117
SWIDTH 363 0
DWIDTH 12 0
BBX 10 17 1 1
BITMAP
C0C0
C0C0
C0C0
C0C0
C0C0
C0C0
C0C0
C0C0
C0C0
C0C0
C0C0
C0C0
C0C0
C0C0
6180
7F80
1E00
ENDCHAR
STARTCHAR 0076
ENCODING 118
SWIDTH 393 0
DWIDTH 13 0
BBX 11 17 1 1
BITMAP
C060
C060
C060
60C0
60C0
60C0
70C0
3180
3180
3180
1B00
1B00
1B00
0F00
0E00
0E00
0E00
ENDCHAR
STARTCHAR 0077
ENCODING 119
SWIDTH 575 0
DWIDTH 19 0
BBX 18 17 0 1
BITMAP
C0C0C0
60C0C0
60E0C0
60E180
61E180
31E180
31B180
31B300
333300
1B3300
1B1B00
1B1E00
1E1E00
0E1E00
0E0E00
0E0E00
0E0C00
ENDCHAR
STARTCHAR 0078
ENCODING 120
SWIDTH 424 0
DWIDTH 14 0
BBX 12 17 1 1
BITMAP
E060
60E0
70C0
31C0
3980
1B00
0F00
0E00
0E00
0F00
1F00
1B80
3180
30C0
60C0
E060
C070
ENDCHAR
STARTCHAR 0079
ENCODING 121
SWIDTH 393 0
DWIDTH 13 0
BBX 10 22 1 -4
BITMAP
C0C0
C0C0
C0C0
C0C0
C0C0
C0C0
C0C0
C0C0
C0C0
C0C0
C0C0
C0C0
C0C0
C0C0
61C0
7FC0
1EC0
00C0
00C0
0180
3F80
1E00
ENDCHAR
STARTCHAR 007A
ENCODING 122
SWIDTH 363 0
DWIDTH 12 0
BBX 10 17 1 0
BITMAP
FFC0
FF80
0180
0300
0300
0600
0600
0C00
0C00
1C00
1800
3800
3000
3000
6000
7FC0
FFC0
ENDCHAR
STARTCHAR 007B
ENCODING 123
SWIDTH 393 0
DWIDTH 13 0
BBX 13 33 0 -4
BITMAP
01F8
07F8
0600
0C00
0C00
0C00
0C00
0C00
0C00
0C00
0C00
0C00
0C00
0C00
1800
3800
F000
F000
3800
1C00
0C00
0C00
0C00
0C00
0C00
0C00
0C00
0C00
0C00
0C00
0600
07F8
01F8
ENDCHAR
STARTCHAR 007C
ENCODING 124
SWIDTH 272 0
DWIDTH 9 0
BBX 2 27 3 -2
BITMAP
C0
C0
C0
C0
C0
C0
C0
C0
C0
C0
C0
C0
C0
C0
C0
C0
C0
C0
C0
C0
C0
C0
C0
C0
C0
C0
C0
ENDCHAR
STARTCHAR 007D
ENCODING 125
SWIDTH 393 0
DWIDTH 13 0
BBX 12 33 0 -4
BITMAP
FC00
FF00
0300
0180
0180
0180
0180
0180
0180
0180
0180
0180
0180
0180
01C0
00E0
00F0
0070
00C0
01C0
0180
0180
0180
0180
0180
0180
0180
0180
0180
0180
0300
FF00
FC00
ENDCHAR
STARTCHAR 007E
ENCODING 126
SWIDTH 454 0
DWIDTH 15 0
BBX 14 4 0 10
BITMAP
1E08
7F9C
E3F8
40E0
ENDCHAR
STARTCHAR 0082
ENCODING 130
SWIDTH 272 0
DWIDTH 9 0
BBX 3 5 3 0
BITMAP
60
60
E0
C0
C0
ENDCHAR
STARTCHAR 0083
ENCODING 131
SWIDTH 484 0
DWIDTH 16 0
BBX 19 29 -1 -5
BITMAP
0007C0
000FE0
001840
003000
003000
006000
006000
006000
006000
07FC00
07FC00
00C000
00C000
018000
018000
018000
018000
030000
030000
030000
030000
060000
060000
060000
0E0000
0C0000
180000
F80000
E00000
ENDCHAR
STARTCHAR 0084
ENCODING 132
SWIDTH 333 0
DWIDTH 11 0
BBX 6 8 3 -2
BITMAP
6C
6C
EC
D8
D8
30
70
20
ENDCHAR
STARTCHAR 0085
ENCODING 133
SWIDTH 393 0
DWIDTH 13 0
BBX 11 3 1 0
BITMAP
4440
EEE0
EEE0
ENDCHAR
STARTCHAR 0086
ENCODING 134
SWIDTH 363 0
DWIDTH 12 0
BBX 10 17 1 1
BITMAP
0C00
0C00
0C00
FFC0
FFC0
0C00
0C00
0C00
0C00
0C00
0C00
0C00
0C00
0C00
0C00
0C00
0C00
ENDCHAR
STARTCHAR 0087
ENCODING 135
SWIDTH 363 0
DWIDTH 12 0
BBX 10 17 1 1
BITMAP
0C00
0C00
0C00
FFC0
FFC0
0C00
0C00
0C00
0C00
0C00
0C00
FFC0
FFC0
0C00
0C00
0C00
0C00
ENDCHAR
STARTCHAR 0088
ENCODING 136
SWIDTH 363 0
DWIDTH 12 0
BBX 8 5 2 20
BITMAP
10
3C
7E
E7
02
ENDCHAR
STARTCHAR 0089
ENCODING 137
SWIDTH 818 0
DWIDTH 27 0
BBX 25 20 1 -1
BITMAP
38040000
7C0C0000
C60C0000
C6180000
C6300000
C6300000
C6600000
7C600000
38C00000
01800000
01800000
031C1E00
033E3F00
06637380
0C636180
0C636180
18636180
38637380
303E3F00
601C1E00
ENDCHAR
STARTCHAR 008B
ENCODING 139
SWIDTH 363 0
DWIDTH 12 0
BBX 8 14 2 4
BITMAP
02
07
0E
1C
38
70
E0
E0
70
38
1C
0E
07
02
ENDCHAR
STARTCHAR 008C
ENCODING 140
SWIDTH 666 0
DWIDTH 22 0
BBX 19 24 1 0
BITMAP
1F0FE0
3FFFE0
71F000
E0E000
C06000
C06000
C06000
C06000
C06000
C06000
C06000
C07F80
C07F80
C06000
C06000
C06000
C06000
C06000
C06000
C06000
E07000
71F000
3FFFE0
1F0FE0
ENDCHAR
STARTCHAR 0091
ENCODING 145
SWIDTH 272 0
DWIDTH 9 0
BBX 3 5 3 19
BITMAP
60
60
E0
C0
C0
ENDCHAR
STARTCHAR 0092
ENCODING 146
SWIDTH 272 0
DWIDTH 9 0
BBX 3 5 3 19
BITMAP
60
60
E0
C0
C0
ENDCHAR
STARTCHAR 0093
ENCODING 147
SWIDTH 333 0
DWIDTH 11 0
BBX 6 8 2 18
BITMAP
10
38
30
6C
6C
DC
D8
D8
ENDCHAR
STARTCHAR 0094
ENCODING 148
SWIDTH 333 0
DWIDTH 11 0
BBX 6 8 3 17
BITMAP
6C
6C
EC
D8
D8
30
70
20
ENDCHAR
STARTCHAR 0095
ENCODING 149
SWIDTH 303 0
DWIDTH 10 0
BBX 5 5 3 7
BITMAP
70
F8
F8
F8
70
ENDCHAR
STARTCHAR 0096
ENCODING 150
SWIDTH 363 0
DWIDTH 12 0
BBX 8 2 2 8
BITMAP
FF
FF
ENDCHAR
STARTCHAR 0097
ENCODING 151
SWIDTH 424 0
DWIDTH 14 0
BBX 13 2 1 8
BITMAP
FFF8
FFF8
ENDCHAR
STARTCHAR 0098
ENCODING 152
SWIDTH 393 0
DWIDTH 13 0
BBX 8 2 2 20
BITMAP
71
FF
ENDCHAR
STARTCHAR 0099
ENCODING 153
SWIDTH 454 0
DWIDTH 15 0
BBX 15 9 0 14
BITMAP
FCC6
FCEE
30EE
30EE
30FE
30D6
30D6
30C6
30C6
ENDCHAR
STARTCHAR 009B
ENCODING 155
SWIDTH 333 0
DWIDTH 11 0
BBX 8 13 1 5
BITMAP
60
70
38
1C
0E
07
07
0E
1C
38
70
E0
40
ENDCHAR
STARTCHAR 009C
ENCODING 156
SWIDTH 606 0
DWIDTH 20 0
BBX 18 18 1 0
BITMAP
1E1E00
7FFF80
61E180
C0C0C0
C0C0C0
C0C0C0
C0C0C0
C0C0C0
C0C0C0
C0FFC0
C0FFC0
C0C000
C0C000
C0C000
C0C000
61E000
7FFF00
1E1E00
ENDCHAR
STARTCHAR 009F
ENCODING 159
SWIDTH 424 0
DWIDTH 14 0
BBX 12 29 1 0
BITMAP
1980
1980
1980
0000
0000
C030
C030
C030
6060
6060
6060
30C0
30C0
30C0
1980
1980
1F80
0F00
0F00
0E00
0600
0600
0600
0600
0600
0600
0600
0600
0600
ENDCHAR
STARTCHAR 00A0
ENCODING 160
SWIDTH 181 0
DWIDTH 6 0
BBX 0 0 0 0
BITMAP
ENDCHAR
STARTCHAR 00A1
ENCODING 161
SWIDTH 272 0
DWIDTH 9 0
BBX 2 24 3 0
BITMAP
C0
C0
00
00
00
C0
C0
C0
C0
C0
C0
C0
C0
C0
C0
C0
C0
C0
C0
C0
C0
C0
C0
C0
ENDCHAR
STARTCHAR 00A2
ENCODING 162
SWIDTH 363 0
DWIDTH 12 0
BBX 9 20 1 1
BITMAP
0C00
0C00
0C00
0C00
1E00
7F80
6180
C000
C000
C000
C000
C000
C000
6180
7F80
1E00
0C00
0C00
0C00
0C00
ENDCHAR
STARTCHAR 00A3
ENCODING 163
SWIDTH 454 0
DWIDTH 15 0
BBX 13 24 1 0
BITMAP
03E0
07F0
0E38
1C18
1800
1800
1800
1800
1800
1800
1800
FFE0
FFE0
1800
1800
1800
1800
1800
1800
1800
3818
7038
FFF0
FFE0
ENDCHAR
STARTCHAR 00A4
ENCODING 164
SWIDTH 424 0
DWIDTH 14 0
BBX 13 24 0 0
BITMAP
03E0
07F0
0E38
1C18
1800
1800
1800
1800
1800
1800
FFE0
FFE0
1800
1800
FFE0
FFE0
1800
1800
1800
1800
1C18
0E38
07F0
03E0
ENDCHAR
STARTCHAR 00A5
ENCODING 165
SWIDTH 424 0
DWIDTH 14 0
BBX 12 24 1 0
BITMAP
C030
C030
6060
6060
6060
30C0
30C0
1080
1980
1980
79E0
7FE0
0E00
0600
7FE0
7FE0
0600
0600
0600
0600
0600
0600
0600
0600
ENDCHAR
STARTCHAR 00A7
ENCODING 167
SWIDTH 363 0
DWIDTH 12 0
BBX 8 19 2 0
BITMAP
3C
7F
E2
C0
C0
F0
7C
7E
C3
C3
C3
7E
3C
0F
03
03
47
FE
3C
ENDCHAR
STARTCHAR 00A8
ENCODING 168
SWIDTH 333 0
DWIDTH 11 0
BBX 7 3 2 20
BITMAP
44
EE
6C
ENDCHAR
STARTCHAR 00A9
ENCODING 169
SWIDTH 484 0
DWIDTH 16 0
BBX 16 18 0 0
BITMAP
07E0
1FF8
3C3C
73CE
6FE6
CC67
D803
D803
D803
D803
D803
D803
EC63
6FE6
73CE
3C3C
1FF8
07E0
ENDCHAR
STARTCHAR 00AA
ENCODING 170
SWIDTH 363 0
DWIDTH 12 0
BBX 8 16 2 9
BITMAP
3C
3E
07
03
3F
7F
E7
C3
C3
C3
E7
7E
3C
00
FF
FF
ENDCHAR
STARTCHAR 00AB
ENCODING 171
SWIDTH 424 0
DWIDTH 14 0
BBX 12 13 1 5
BITMAP
0630
0E70
1CE0
39C0
7380
E700
C600
6300
3180
1CC0
0E60
0730
0210
ENDCHAR
STARTCHAR 00AC
ENCODING 172
SWIDTH 393 0
DWIDTH 13 0
BBX 10 7 1 4
BITMAP
FFC0
FFC0
00C0
00C0
00C0
00C0
00C0
ENDCHAR
STARTCHAR 00AE
ENCODING 174
SWIDTH 454 0
DWIDTH 15 0
BBX 15 21 0 0
BITMAP
07C0
1FF0
3838
701C
638C
C7C6
CCE6
CC66
CC66
CC66
CFC6
CF86
CD86
CCC6
CCE6
CC66
600C
701C
3838
1FF0
07C0
ENDCHAR
STARTCHAR 00AF
ENCODING 175
SWIDTH 363 0
DWIDTH 12 0
BBX 8 2 2 20
BITMAP
FF
FF
ENDCHAR
STARTCHAR 00B0
ENCODING 176
SWIDTH 363 0
DWIDTH 12 0
BBX 8 7 2 17
BITMAP
3C
7E
C7
C3
E7
7E
3C
ENDCHAR
STARTCHAR 00B1
ENCODING 177
SWIDTH 393 0
DWIDTH 13 0
BBX 12 16 0 1
BITMAP
0600
0600
0600
0600
0600
FFF0
FFF0
0600
0600
0600
0600
0600
0000
0000
FFF0
FFF0
ENDCHAR
STARTCHAR 00B4
ENCODING 180
SWIDTH 303 0
DWIDTH 10 0
BBX 6 5 2 19
BITMAP
08
1C
38
70
E0
ENDCHAR
STARTCHAR 00B5
ENCODING 181
SWIDTH 454 0
DWIDTH 15 0
BBX 13 22 1 -4
BITMAP
C0C0
C0C0
C0C0
C0C0
C0C0
C0C0
C0C0
C0C0
C0C0
C0C0
C0C0
C0C0
C0C0
C0E0
E1F0
FFB8
FE18
C000
C000
C000
C000
C000
ENDCHAR
STARTCHAR 00B6
ENCODING 182
SWIDTH 484 0
DWIDTH 16 0
BBX 14 24 0 -1
BITMAP
1FFC
3FFC
70CC
E0CC
C0CC
C0CC
C0CC
E0CC
70CC
3FCC
1FCC
00CC
00CC
00CC
00CC
00CC
00CC
00CC
00CC
00CC
00CC
00CC
00CC
00CC
ENDCHAR
STARTCHAR 00B7
ENCODING 183
SWIDTH 272 0
DWIDTH 9 0
BBX 3 3 3 8
BITMAP
40
E0
60
ENDCHAR
STARTCHAR 00B8
ENCODING 184
SWIDTH 303 0
DWIDTH 10 0
BBX 5 7 3 -5
BITMAP
60
E0
F0
18
18
F8
70
ENDCHAR
STARTCHAR 00BA
ENCODING 186
SWIDTH 363 0
DWIDTH 12 0
BBX 8 16 2 9
BITMAP
3C
7E
E7
C3
C3
C3
C3
C3
C3
C3
E7
7E
3C
00
FF
FF
ENDCHAR
STARTCHAR 00BB
ENCODING 187
SWIDTH 424 0
DWIDTH 14 0
BBX 13 14 0 4
BITMAP
4200
E700
7380
39C0
1CE0
0E70
0738
0738
0E70
1CE0
39C0
7380
E700
4200
ENDCHAR
STARTCHAR 00BF
ENCODING 191
SWIDTH 393 0
DWIDTH 13 0
BBX 11 24 1 0
BITMAP
0C00
0C00
0C00
0000
0000
0C00
0C00
0C00
0C00
0C00
1C00
3800
7000
6000
C000
C000
C000
C060
C060
C060
E0E0
71C0
3F80
1F00
ENDCHAR
STARTCHAR 00C0
ENCODING 192
SWIDTH 393 0
DWIDTH 13 0
BBX 11 30 1 1
BITMAP
1800
1C00
0E00
0700
0000
0000
1F00
3F80
71C0
E0E0
C060
C060
C060
C060
C060
C060
C060
C060
C060
C060
FFE0
FFE0
C060
C060
C060
C060
C060
C060
C060
C060
ENDCHAR
STARTCHAR 00C1
ENCODING 193
SWIDTH 393 0
DWIDTH 13 0
BBX 11 30 1 1
BITMAP
0300
0700
0E00
1800
0000
0000
1F00
3F80
71C0
E0E0
C060
C060
C060
C060
C060
C060
C060
C060
C060
C060
FFE0
FFE0
C060
C060
C060
C060
C060
C060
C060
C060
ENDCHAR
STARTCHAR 00C2
ENCODING 194
SWIDTH 393 0
DWIDTH 13 0
BBX 11 30 1 1
BITMAP
0E00
1F00
3B80
3180
0000
0000
1F00
3F80
71C0
E0E0
C060
C060
C060
C060
C060
C060
C060
C060
C060
C060
FFE0
FFE0
C060
C060
C060
C060
C060
C060
C060
C060
ENDCHAR
STARTCHAR 00C3
ENCODING 195
SWIDTH 393 0
DWIDTH 13 0
BBX 11 29 1 1
BITMAP
3840
7EE0
E7C0
0100
0000
1F00
3F80
71C0
E0E0
C060
C060
C060
C060
C060
C060
C060
C060
C060
C060
FFE0
FFE0
C060
C060
C060
C060
C060
C060
C060
C060
ENDCHAR
STARTCHAR 00C4
ENCODING 196
SWIDTH 393 0
DWIDTH 13 0
BBX 11 29 1 0
BITMAP
1100
3B80
1B00
0000
0000
1F00
3F80
71C0
E0E0
C060
C060
C060
C060
C060
C060
C060
C060
C060
C060
FFE0
FFE0
C060
C060
C060
C060
C060
C060
C060
C060
ENDCHAR
STARTCHAR 00C5
ENCODING 197
SWIDTH 393 0
DWIDTH 13 0
BBX 11 30 1 1
BITMAP
0E00
1100
1100
0E00
0000
0000
1F00
3F80
71C0
E0E0
C060
C060
C060
C060
C060
C060
C060
C060
C060
C060
FFE0
FFE0
C060
C060
C060
C060
C060
C060
C060
C060
ENDCHAR
STARTCHAR 00C6
ENCODING 198
SWIDTH 636 0
DWIDTH 21 0
BBX 19 24 1 0
BITMAP
1F0FE0
3FDFE0
71F000
E0E000
C06000
C06000
C06000
C06000
C06000
C06000
C06000
FFFF80
FFFF80
C06000
C06000
C06000
C06000
C06000
C06000
C06000
C06000
C03000
C03FE0
C00FE0
ENDCHAR
STARTCHAR 00C7
ENCODING 199
SWIDTH 363 0
DWIDTH 12 0
BBX 10 31 1 -7
BITMAP
1F00
3F80
71C0
E0C0
C000
C000
C000
C000
C000
C000
C000
C000
C000
C000
C000
C000
C000
C000
C000
C000
E0C0
71C0
7F80
1F00
1800
1E00
1F00
0300
0300
1F00
0E00
ENDCHAR
STARTCHAR 00C8
ENCODING 200
SWIDTH 363 0
DWIDTH 12 0
BBX 10 30 1 1
BITMAP
3800
1C00
0E00
0600
0200
0000
FFC0
FFC0
C000
C000
C000
C000
C000
C000
C000
C000
C000
FF00
FF00
C000
C000
C000
C000
C000
C000
C000
C000
6000
7FC0
1FC0
ENDCHAR
STARTCHAR 00C9
ENCODING 201
SWIDTH 363 0
DWIDTH 12 0
BBX 10 30 1 1
BITMAP
0300
0E00
1C00
1800
0000
0000
FFC0
FFC0
C000
C000
C000
C000
C000
C000
C000
C000
C000
FF00
FF00
C000
C000
C000
C000
C000
C000
C000
C000
6000
7FC0
1FC0
ENDCHAR
STARTCHAR 00CA
ENCODING 202
SWIDTH 363 0
DWIDTH 12 0
BBX 10 31 1 0
BITMAP
0400
0E00
1F00
3380
2080
0000
0000
FFC0
FFC0
C000
C000
C000
C000
C000
C000
C000
C000
C000
FF00
FF00
C000
C000
C000
C000
C000
C000
C000
C000
6000
7FC0
1FC0
ENDCHAR
STARTCHAR 00CB
ENCODING 203
SWIDTH 363 0
DWIDTH 12 0
BBX 10 29 1 0
BITMAP
3200
3700
3300
0000
0000
FFC0
FFC0
C000
C000
C000
C000
C000
C000
C000
C000
C000
FF00
FF00
C000
C000
C000
C000
C000
C000
C000
C000
6000
7FC0
1FC0
ENDCHAR
STARTCHAR 00CC
ENCODING 204
SWIDTH 303 0
DWIDTH 10 0
BBX 6 31 2 1
BITMAP
40
E0
70
3C
08
00
00
30
30
30
30
30
30
30
30
30
30
30
30
30
30
30
30
30
30
30
30
30
30
30
30
ENDCHAR
STARTCHAR 00CD
ENCODING 205
SWIDTH 303 0
DWIDTH 10 0
BBX 6 31 2 1
BITMAP
08
1C
38
F0
40
00
00
30
30
30
30
30
30
30
30
30
30
30
30
30
30
30
30
30
30
30
30
30
30
30
30
ENDCHAR
STARTCHAR 00CE
ENCODING 206
SWIDTH 333 0
DWIDTH 11 0
BBX 8 31 2 1
BITMAP
18
3C
7E
E7
02
00
00
18
18
18
18
18
18
18
18
18
18
18
18
18
18
18
18
18
18
18
18
18
18
18
18
ENDCHAR
STARTCHAR 00CF
ENCODING 207
SWIDTH 303 0
DWIDTH 10 0
BBX 6 29 2 0
BITMAP
CC
CC
CC
00
00
30
30
30
30
30
30
30
30
30
30
30
30
30
30
30
30
30
30
30
30
30
30
30
30
ENDCHAR
STARTCHAR 00D1
ENCODING 209
SWIDTH 393 0
DWIDTH 13 0
BBX 11 30 1 0
BITMAP
1800
7C60
EFC0
4380
0000
0000
C060
E060
E060
F060
F060
F060
F860
D860
D860
CC60
CC60
CC60
C660
C660
C760
C360
C360
C3E0
C1E0
C1E0
C0E0
C0E0
C0E0
C060
ENDCHAR
STARTCHAR 00D2
ENCODING 210
SWIDTH 393 0
DWIDTH 13 0
BBX 11 30 1 1
BITMAP
1800
1C00
0E00
0300
0000
0000
1F00
3F80
71C0
E0E0
C060
C060
C060
C060
C060
C060
C060
C060
C060
C060
C060
C060
C060
C060
C060
C060
E0E0
71C0
3F80
1F00
ENDCHAR
STARTCHAR 00D3
ENCODING 211
SWIDTH 393 0
DWIDTH 13 0
BBX 11 30 1 1
BITMAP
0300
0700
1E00
1800
0000
0000
1F00
3F80
71C0
E0E0
C060
C060
C060
C060
C060
C060
C060
C060
C060
C060
C060
C060
C060
C060
C060
C060
E0E0
71C0
3F80
1F00
ENDCHAR
STARTCHAR 00D4
ENCODING 212
SWIDTH 393 0
DWIDTH 13 0
BBX 11 30 1 1
BITMAP
0E00
1F00
3B80
3180
0000
0000
1F00
3F80
71C0
E0E0
C060
C060
C060
C060
C060
C060
C060
C060
C060
C060
C060
C060
C060
C060
C060
C060
E0E0
71C0
3F80
1F00
ENDCHAR
STARTCHAR 00D5
ENCODING 213
SWIDTH 393 0
DWIDTH 13 0
BBX 11 29 1 1
BITMAP
3840
7EE0
C7C0
0100
0000
1F00
3F80
71C0
E0E0
C060
C060
C060
C060
C060
C060
C060
C060
C060
C060
C060
C060
C060
C060
C060
C060
E0E0
71C0
3F80
1F00
ENDCHAR
STARTCHAR 00D6
ENCODING 214
SWIDTH 393 0
DWIDTH 13 0
BBX 11 29 1 0
BITMAP
1100
3B80
3B00
0000
0000
1F00
3F80
71C0
E0E0
C060
C060
C060
C060
C060
C060
C060
C060
C060
C060
C060
C060
C060
C060
C060
C060
E0E0
71C0
3F80
1F00
ENDCHAR
STARTCHAR 00D8
ENCODING 216
SWIDTH 454 0
DWIDTH 15 0
BBX 15 24 0 0
BITMAP
07C6
0FE6
1C7C
381C
3018
3038
3038
3078
3078
30D8
31D8
3198
3318
3718
3618
3E18
3C18
3818
3818
3018
7838
7C70
CFE0
C7C0
ENDCHAR
STARTCHAR 00D9
ENCODING 217
SWIDTH 393 0
DWIDTH 13 0
BBX 11 31 1 1
BITMAP
1800
1C00
0E00
0700
0000
0000
C060
C060
C060
C060
C060
C060
C060
C060
C060
C060
C060
C060
C060
C060
C060
C060
C060
C060
C060
C060
C060
E0E0
71C0
3F80
1F00
ENDCHAR
STARTCHAR 00DA
ENCODING 218
SWIDTH 393 0
DWIDTH 13 0
BBX 11 31 1 1
BITMAP
0300
0700
0E00
1C00
1000
0000
C060
C060
C060
C060
C060
C060
C060
C060
C060
C060
C060
C060
C060
C060
C060
C060
C060
C060
C060
C060
C060
E0E0
71C0
3F80
1F00
ENDCHAR
STARTCHAR 00DB
ENCODING 219
SWIDTH 393 0
DWIDTH 13 0
BBX 11 31 1 1
BITMAP
0E00
1F00
3B80
3180
2000
0000
C060
C060
C060
C060
C060
C060
C060
C060
C060
C060
C060
C060
C060
C060
C060
C060
C060
C060
C060
C060
C060
E0E0
71C0
3F80
1F00
ENDCHAR
STARTCHAR 00DC
ENCODING 220
SWIDTH 393 0
DWIDTH 13 0
BBX 11 29 1 0
BITMAP
1100
3B80
1B00
0000
0000
C060
C060
C060
C060
C060
C060
C060
C060
C060
C060
C060
C060
C060
C060
C060
C060
C060
C060
C060
C060
E0E0
71C0
3F80
1F00
ENDCHAR
STARTCHAR 00DF
ENCODING 223
SWIDTH 454 0
DWIDTH 15 0
BBX 14 24 1 0
BITMAP
0FC0
1FE0
3870
3030
3030
3030
F030
F070
33E0
37C0
3600
37E0
33F0
3038
301C
300C
300C
300C
300C
300C
301C
3038
33F0
37C0
ENDCHAR
STARTCHAR 00E0
ENCODING 224
SWIDTH 363 0
DWIDTH 12 0
BBX 10 24 1 1
BITMAP
E000
7800
3C00
0C00
0000
0000
1E00
3F80
0180
00C0
00C0
1EC0
7FC0
61C0
C0C0
C0C0
C0C0
C0C0
C0C0
C0C0
C0C0
6180
7F80
1E00
ENDCHAR
STARTCHAR 00E1
ENCODING 225
SWIDTH 393 0
DWIDTH 13 0
BBX 10 25 1 0
BITMAP
0080
01C0
0780
0F00
0C00
0800
0000
1E00
3F80
0180
00C0
00C0
1EC0
3FC0
61C0
C0C0
C0C0
C0C0
C0C0
C0C0
C0C0
C0C0
6180
7F80
1E00
ENDCHAR
STARTCHAR 00E2
ENCODING 226
SWIDTH 393 0
DWIDTH 13 0
BBX 10 24 1 0
BITMAP
0C00
1E00
7F80
F3C0
0000
0000
1E00
3F80
0180
00C0
00C0
1EC0
7FC0
61C0
C0C0
C0C0
C0C0
C0C0
C0C0
C0C0
C0C0
6180
7F80
1E00
ENDCHAR
STARTCHAR 00E3
ENCODING 227
SWIDTH 363 0
DWIDTH 12 0
BBX 10 23 1 0
BITMAP
3880
FF80
0000
0000
0000
1E00
3F80
0180
00C0
00C0
1EC0
7FC0
61C0
C0C0
C0C0
C0C0
C0C0
C0C0
C0C0
C0C0
6180
7F80
1E00
ENDCHAR
STARTCHAR 00E4
ENCODING 228
SWIDTH 393 0
DWIDTH 13 0
BBX 10 22 1 0
BITMAP
3300
3300
3300
0000
1E00
3F80
0180
00C0
00C0
1EC0
3FC0
61C0
C0C0
C0C0
C0C0
C0C0
C0C0
C0C0
C0C0
6180
7F80
1E00
ENDCHAR
STARTCHAR 00E5
ENCODING 229
SWIDTH 393 0
DWIDTH 13 0
BBX 10 24 1 0
BITMAP
0C00
1E00
1200
1200
0C00
0000
0F00
1F80
01C0
00C0
00C0
1EC0
3FC0
61C0
C0C0
C0C0
C0C0
C0C0
C0C0
C0C0
C0C0
6180
7F80
1E00
ENDCHAR
STARTCHAR 00E6
ENCODING 230
SWIDTH 606 0
DWIDTH 20 0
BBX 17 18 1 0
BITMAP
1C3C00
7FFF00
03C300
018180
018180
1D8180
7F8180
638180
C18180
C1FF80
C1FF80
C18000
C18000
C18000
C18000
63C000
7FFE00
3C3C00
ENDCHAR
STARTCHAR 00E7
ENCODING 231
SWIDTH 363 0
DWIDTH 12 0
BBX 9 24 1 -6
BITMAP
1E00
7F80
6180
C000
C000
C000
C000
C000
C000
C000
C000
C000
C000
C000
C000
6180
7F80
1E00
1C00
1E00
0300
0300
1F00
0E00
ENDCHAR
STARTCHAR 00E8
ENCODING 232
SWIDTH 363 0
DWIDTH 12 0
BBX 10 24 1 1
BITMAP
E000
7800
3C00
0C00
0400
0000
1E00
7F80
6180
C0C0
C0C0
C0C0
C0C0
C0C0
C0C0
FFC0
FFC0
C000
C000
C000
C000
6000
7F00
1E00
ENDCHAR
STARTCHAR 00E9
ENCODING 233
SWIDTH 363 0
DWIDTH 12 0
BBX 10 24 1 1
BITMAP
01C0
0780
0F00
0C00
0800
0000
1E00
7F80
6180
C0C0
C0C0
C0C0
C0C0
C0C0
C0C0
FFC0
FFC0
C000
C000
C000
C000
6000
7F00
1E00
ENDCHAR
STARTCHAR 00EA
ENCODING 234
SWIDTH 363 0
DWIDTH 12 0
BBX 10 24 1 0
BITMAP
0C00
1E00
7F80
F3C0
0000
0000
1E00
7F80
6180
C0C0
C0C0
C0C0
C0C0
C0C0
C0C0
FFC0
FFC0
C000
C000
C000
C000
6000
7F00
1E00
ENDCHAR
STARTCHAR 00EB
ENCODING 235
SWIDTH 363 0
DWIDTH 12 0
BBX 10 23 1 0
BITMAP
3300
3300
3300
0000
0000
1E00
7F80
6180
C0C0
C0C0
C0C0
C0C0
C0C0
C0C0
FFC0
FFC0
C000
C000
C000
C000
6000
7F00
1E00
ENDCHAR
STARTCHAR 00EC
ENCODING 236
SWIDTH 212 0
DWIDTH 7 0
BBX 5 25 0 1
BITMAP
C0
E0
70
38
18
00
00
00
18
18
18
18
18
18
18
18
18
18
18
18
18
18
18
18
18
ENDCHAR
STARTCHAR 00ED
ENCODING 237
SWIDTH 212 0
DWIDTH 7 0
BBX 5 25 3 1
BITMAP
18
38
70
E0
80
00
00
00
C0
C0
C0
C0
C0
C0
C0
C0
C0
C0
C0
C0
C0
C0
C0
C0
C0
ENDCHAR
STARTCHAR 00EE
ENCODING 238
SWIDTH 272 0
DWIDTH 9 0
BBX 8 24 0 1
BITMAP
18
3C
7E
E7
00
00
00
18
18
18
18
18
18
18
18
18
18
18
18
18
18
18
18
18
ENDCHAR
STARTCHAR 00EF
ENCODING 239
SWIDTH 242 0
DWIDTH 8 0
BBX 6 23 1 0
BITMAP
CC
CC
CC
00
00
00
30
30
30
30
30
30
30
30
30
30
30
30
30
30
30
30
30
ENDCHAR
STARTCHAR 00F1
ENCODING 241
SWIDTH 393 0
DWIDTH 13 0
BBX 10 23 1 0
BITMAP
3880
FF80
0000
0000
0000
1E00
7F80
6180
C0C0
C0C0
C0C0
C0C0
C0C0
C0C0
C0C0
C0C0
C0C0
C0C0
C0C0
C0C0
C0C0
C0C0
C0C0
ENDCHAR
STARTCHAR 00F2
ENCODING 242
SWIDTH 363 0
DWIDTH 12 0
BBX 10 25 1 1
BITMAP
6000
F000
3800
1C00
0C00
0000
0000
1E00
7F80
6180
C0C0
C0C0
C0C0
C0C0
C0C0
C0C0
C0C0
C0C0
C0C0
C0C0
C0C0
C0C0
6180
7F80
1E00
ENDCHAR
STARTCHAR 00F3
ENCODING 243
SWIDTH 363 0
DWIDTH 12 0
BBX 10 25 1 1
BITMAP
0180
03C0
0700
0E00
0C00
0000
0000
1E00
7F80
6180
C0C0
C0C0
C0C0
C0C0
C0C0
C0C0
C0C0
C0C0
C0C0
C0C0
C0C0
C0C0
6180
7F80
1E00
ENDCHAR
STARTCHAR 00F4
ENCODING 244
SWIDTH 393 0
DWIDTH 13 0
BBX 10 24 1 0
BITMAP
0C00
1E00
7F80
F3C0
0000
0000
1E00
7F80
6180
C0C0
C0C0
C0C0
C0C0
C0C0
C0C0
C0C0
C0C0
C0C0
C0C0
C0C0
C0C0
6180
7F80
1E00
ENDCHAR
STARTCHAR 00F5
ENCODING 245
SWIDTH 363 0
DWIDTH 12 0
BBX 10 23 1 0
BITMAP
3880
FF80
0000
0000
0000
1E00
7F80
6180
C0C0
C0C0
C0C0
C0C0
C0C0
C0C0
C0C0
C0C0
C0C0
C0C0
C0C0
C0C0
6180
7F80
1E00
ENDCHAR
STARTCHAR 00F6
ENCODING 246
SWIDTH 393 0
DWIDTH 13 0
BBX 10 23 1 0
BITMAP
3300
3300
3300
0000
0000
1E00
7F80
6180
C0C0
C0C0
C0C0
C0C0
C0C0
C0C0
C0C0
C0C0
C0C0
C0C0
C0C0
C0C0
6180
7F80
1E00
ENDCHAR
STARTCHAR 00F7
ENCODING 247
SWIDTH 606 0
DWIDTH 20 0
BBX 17 25 1 0
BITMAP
1F1E00
3F7E00
606180
C0C180
C0C000
C0C000
C0C000
C0C000
FFFF80
FFFF80
C0C180
C0C180
C0C180
C0C180
C0C180
C0C180
C0C180
C0C180
C0C180
C0C180
C0C180
C0C180
C0C180
C0C180
C0C180
ENDCHAR
STARTCHAR 00F8
ENCODING 248
SWIDTH 424 0
DWIDTH 14 0
BBX 12 18 1 0
BITMAP
0F30
3FF0
30E0
6060
60E0
61E0
61E0
6360
6660
6660
6C60
7C60
7860
7060
7060
70C0
FFC0
CF00
ENDCHAR
STARTCHAR 00F9
ENCODING 249
SWIDTH 363 0
DWIDTH 12 0
BBX 10 25 1 1
BITMAP
6000
F000
3800
1C00
0C00
0000
0000
0000
C0C0
C0C0
C0C0
C0C0
C0C0
C0C0
C0C0
C0C0
C0C0
C0C0
C0C0
C0C0
C0C0
C0C0
6180
7F80
1E00
ENDCHAR
STARTCHAR 00FA
ENCODING 250
SWIDTH 393 0
DWIDTH 13 0
BBX 10 25 1 1
BITMAP
0180
03C0
0700
0E00
0C00
0000
0000
0000
C0C0
C0C0
C0C0
C0C0
C0C0
C0C0
C0C0
C0C0
C0C0
C0C0
C0C0
C0C0
C0C0
C0C0
6180
7F80
1E00
ENDCHAR
STARTCHAR 00FB
ENCODING 251
SWIDTH 393 0
DWIDTH 13 0
BBX 10 24 1 1
BITMAP
0C00
3F00
7380
6180
0000
0000
0000
C0C0
C0C0
C0C0
C0C0
C0C0
C0C0
C0C0
C0C0
C0C0
C0C0
C0C0
C0C0
C0C0
C0C0
6180
7F80
1E00
ENDCHAR
STARTCHAR 00FC
ENCODING 252
SWIDTH 393 0
DWIDTH 13 0
BBX 10 22 1 0
BITMAP
3300
3300
3300
0000
0000
C0C0
C0C0
C0C0
C0C0
C0C0
C0C0
C0C0
C0C0
C0C0
C0C0
C0C0
C0C0
C0C0
C0C0
6180
7F80
1E00
ENDCHAR
STARTCHAR 00FF
ENCODING 255
SWIDTH 393 0
DWIDTH 13 0
BBX 10 27 1 -5
BITMAP
3300
3300
3300
0000
0000
C0C0
C0C0
C0C0
C0C0
C0C0
C0C0
C0C0
C0C0
C0C0
C0C0
C0C0
C0C0
C0C0
C0C0
61C0
7FC0
1EC0
00C0
00C0
0180
3F80
1E00
ENDCHAR
ENDFONT
